<svg xmlns="http://www.w3.org/2000/svg" viewBox="0 0 135.43 96.75"><defs><style>.cls-1{fill:#58595b;fill-rule:evenodd}</style></defs><title>Ресурс 111</title><g id="Слой_2" data-name="Слой 2"><g id="Layer_2" data-name="Layer 2"><path class="cls-1" d="M135.41 89.21V6.36L93.93 41.9l-7.37 6.37c-5.2 4.43-9.91 8.27-14.43 12.32-3.13 2.8-5.89 2.87-9 0-4.66-4.15-9.5-8.09-14.54-12.35l-7.33-6.44L0 6.62V89s.12 4 1.9 5.83c2.29 2.28 4.3 1.89 4.3 1.89H129a8 8 0 0 0 4.92-2.34 7.76 7.76 0 0 0 1.49-5.17z"/><path class="cls-1" d="M67.72 51.69L128 0H7.46z"/></g></g></svg>