<svg xmlns="http://www.w3.org/2000/svg" viewBox="0 0 89.25 133.83"><defs><style>.cls-1{fill:#58595b;fill-rule:evenodd}</style></defs><title>Ресурс33</title><g id="Слой_2" data-name="Слой 2"><path class="cls-1" d="M0 45.31c.21-13.62 5-24.79 14.7-33.73A43.36 43.36 0 0 1 36.6.73 44.1 44.1 0 0 1 49.22.24a44.62 44.62 0 0 1 38.07 31.24 45.57 45.57 0 0 1 1.92 15.26 79.59 79.59 0 0 1-4.35 22.08 143.63 143.63 0 0 1-9.66 22.05 241.87 241.87 0 0 1-16.46 26.39C55 122.52 51.11 127.65 47 132.6a2.79 2.79 0 0 1-4.62 0A236 236 0 0 1 28 113.81 214 214 0 0 1 11 85.1a123 123 0 0 1-8.2-21.42A78 78 0 0 1 .42 51.3C.2 49.17.12 47 0 45.31zm64.16 2.08a19.51 19.51 0 1 1-19.52-19.5 19.57 19.57 0 0 1 19.52 19.5z" id="Layer_2" data-name="Layer 2"/></g></svg>