<svg xmlns="http://www.w3.org/2000/svg" viewBox="0 0 119.32 119.26"><defs><style>.cls-1{fill:#58595b;fill-rule:evenodd;}</style></defs><title>Ресурс 22</title><g id="Слой_2" data-name="Слой 2"><g id="Layer_2" data-name="Layer 2"><path class="cls-1" d="M96.89,119.21C48.16,117.73,6.76,79.81,1.2,31.57a41.46,41.46,0,0,0-.64-4.45C-2.13,15,5.24,7.93,13.87,2.12c7.34-4.94,17.89-.85,21.38,8a110.84,110.84,0,0,1,5,17.72C41.5,34,39,39,34.29,42.88c-2.73,2.24-3.08,4.46-1.82,7.74,7,18,19.33,30.32,37.55,36.83,2.62.93,4.33.62,6-1.5,5.68-7,12.88-8.15,21.13-5.39,3.46,1.16,7.09,1.82,10.56,3,12.28,4.11,15.42,17.37,6.36,26.6C105.37,119,104.6,119.45,96.89,119.21Z"/></g></g></svg>